<svg xmlns="http://www.w3.org/2000/svg" xmlns:xlink="http://www.w3.org/1999/xlink" viewBox="0 0 20 20" style="enable-background:new 0 0 20 20;" xml:space="preserve">
  <style type="text/css">.st0{fill-rule:evenodd;clip-rule:evenodd;fill:#424242;}</style>
  <path class="st0" d="M13.7,3.3l4,4c0.4,0.4,0.4,1,0,1.4l-4,4c0,0,0,0,0,0c-0.4,0.4-1,0.4-1.4,0c-0.4-0.4-0.4-1,0-1.4L14.6,9H9c-2.8,0-5,2.2-5,5v2c0,0.6-0.4,1-1,1s-1-0.4-1-1v-2l0,0c0-3.9,3.1-7,7-7h5.6l-2.3-2.3c-0.4-0.4-0.4-1,0-1.4C12.7,2.9,13.3,2.9,13.7,3.3z"/>
</svg>
