<svg xmlns="http://www.w3.org/2000/svg" xmlns:xlink="http://www.w3.org/1999/xlink" viewBox="0 0 22.5 24" xml:space="preserve">
<g>
	<path d="M22,0H0.5C0.2,0,0,0.2,0,0.5v19.4c0,0.3,0.2,0.5,0.5,0.5H2v3.1C2,23.8,2.2,24,2.5,24H20c0.3,0,0.5-0.2,0.5-0.5v-3.1H22
		c0.3,0,0.5-0.2,0.5-0.5V0.5C22.5,0.2,22.2,0,22,0z M12.3,1H18v13.9h-5.7V1z M8.8,23H5.5v-2.5h3.3V23z M21.5,19.4H20
		c-0.3,0-0.5,0.2-0.5,0.5V23H9.8v-3c0-0.3-0.2-0.5-0.5-0.5H5c-0.3,0-0.5,0.2-0.5,0.5v3H3v-3.1c0-0.3-0.2-0.5-0.5-0.5H1V1h10.4v14.4
		c0,0.3,0.2,0.5,0.5,0.5h6.6c0.3,0,0.5-0.2,0.5-0.5V1h2.6v18.4H21.5z"/>
	<path d="M16.4,19.6L16.4,19.6l-1.2,1.1L14,19.6c-0.2-0.2-0.5-0.2-0.7,0s-0.2,0.5,0,0.7l1.5,1.5c0.2,0.2,0.5,0.2,0.7,0l0,0l1.5-1.5
		c0.2-0.2,0.2-0.5,0-0.7C16.9,19.4,16.6,19.4,16.4,19.6z"/>
</g>
<g>
	<path d="M6.8,14.6c-0.3,0-0.6,0.1-0.8,0.3c-0.2,0.2-0.4,0.5-0.5,0.9c-0.1,0.2-0.2,0.4-0.2,0.5c-0.1,0.1-0.1,0.2-0.2,0.2
		c-0.1,0-0.1,0.1-0.2,0.1c-0.1,0-0.2,0-0.3-0.1c-0.1-0.1-0.1-0.3-0.1-0.5c0-0.3,0.1-0.6,0.2-0.9l0.1-0.2L4,14.6L4,14.8
		c-0.2,0.3-0.2,0.7-0.2,1.1s0.1,0.7,0.3,1c0.2,0.3,0.5,0.4,0.8,0.4c0.3,0,0.6-0.1,0.8-0.3c0.2-0.2,0.4-0.5,0.5-0.8
		c0.1-0.2,0.2-0.4,0.2-0.5c0.1-0.1,0.1-0.2,0.2-0.2c0.1,0,0.1-0.1,0.2-0.1c0.1,0,0.3,0,0.3,0.2c0.1,0.1,0.1,0.3,0.1,0.6
		c0,0.2,0,0.3-0.1,0.5c0,0.2-0.1,0.3-0.1,0.5L7,17.4h0.8l0-0.1C8,17,8.1,16.6,8.1,16.1c0-0.5-0.1-0.8-0.3-1.1
		C7.5,14.7,7.2,14.6,6.8,14.6z"/>
	<polygon points="3.8,11.1 3.8,13.6 8,13.6 8,12.8 6.4,12.8 6.4,11.2 5.6,11.2 5.6,12.8 4.5,12.8 4.5,11.1 	"/>
	<path d="M7.9,7.1H7.1l0.1,0.2c0.1,0.3,0.1,0.6,0.1,0.9C7.3,8.6,7.2,8.8,7,9C6.7,9.3,6.4,9.4,5.9,9.4c-0.4,0-0.8-0.1-1-0.3
		C4.6,8.8,4.5,8.5,4.5,8.2c0-0.3,0.1-0.5,0.2-0.8l0.1-0.2L4.1,6.9L4,7C3.8,7.3,3.7,7.7,3.7,8.2c0,0.4,0.1,0.8,0.3,1.1
		C4.2,9.5,4.4,9.8,4.8,10c0.3,0.2,0.7,0.2,1.1,0.2c0.7,0,1.2-0.2,1.6-0.5c0.4-0.3,0.6-0.8,0.6-1.4c0-0.4-0.1-0.8-0.2-1.1L7.9,7.1z"
		/>
	<path d="M4.8,5.7C5.1,5.9,5.5,6,5.9,6c0.7,0,1.2-0.2,1.6-0.5C7.9,5.1,8.1,4.6,8.1,4C8.1,3.6,8,3.3,7.9,3l0-0.1H7.1l0.1,0.2
		C7.3,3.4,7.3,3.7,7.3,4c0,0.4-0.1,0.7-0.4,0.9C6.7,5,6.4,5.2,5.9,5.2c-0.4,0-0.8-0.1-1-0.3C4.6,4.6,4.5,4.3,4.5,4
		c0-0.3,0.1-0.5,0.2-0.8L4.8,3L4.1,2.7L4,2.8C3.8,3.1,3.7,3.5,3.7,3.9C3.7,4.4,3.8,4.7,4,5C4.2,5.3,4.4,5.6,4.8,5.7z"/>
</g>
</svg>
