<svg id="Layer_1" data-name="Layer 1" xmlns="http://www.w3.org/2000/svg" viewBox="0 0 64 64"><path d="M18,27.91l-5.86,5.86A12.81,12.81,0,0,0,30.23,51.88h0L38,44.07A12.8,12.8,0,0,0,34.5,23.46L32,26a4.21,4.21,0,0,0-.66.85A8.54,8.54,0,0,1,35,41.06l-7.8,7.81A8.55,8.55,0,0,1,15.13,36.78l3.39-3.38A17.28,17.28,0,0,1,18,27.9Z" fill="#C5C5C5"/><path d="M26,19.92A12.81,12.81,0,0,0,29.5,40.54l3.31-3.32A8.53,8.53,0,0,1,29,22.94l7.8-7.81A8.55,8.55,0,1,1,48.87,27.22h0L45.48,30.6A17.25,17.25,0,0,1,46,36.09l5.86-5.86A12.81,12.81,0,0,0,33.77,12.12Z" fill="#9ca3af"/></svg>
