<svg xmlns="http://www.w3.org/2000/svg" viewBox="0 0 16 16" width="16" height="16"><path d="M15,12.09a.44.44,0,0,0-.13-.32L14,10.86c.1-.21.19-.43.27-.65h1.3A.45.45,0,0,0,16,9.76V6.24a.45.45,0,0,0-.45-.45h-1.3c-.08-.22-.17-.44-.27-.65l.92-.91a.45.45,0,0,0,0-.64L12.41,1.1a.45.45,0,0,0-.64,0L10.86,2c-.21-.1-.43-.19-.65-.27V.45A.45.45,0,0,0,9.76,0H6.24a.45.45,0,0,0-.45.45v1.3c-.22.08-.44.17-.65.27L4.23,1.1a.45.45,0,0,0-.64,0L1.1,3.59a.45.45,0,0,0,0,.64L2,5.14c-.1.21-.19.43-.27.65H.45A.45.45,0,0,0,0,6.24V9.76a.45.45,0,0,0,.45.45h1.3c.08.22.17.44.27.65l-.92.91a.44.44,0,0,0-.13.32.42.42,0,0,0,.13.32L3.59,14.9a.42.42,0,0,0,.32.13.44.44,0,0,0,.32-.13L5.14,14c.21.1.43.19.65.27v1.3a.45.45,0,0,0,.45.45H9.76a.45.45,0,0,0,.45-.45v-1.3c.22-.08.44-.17.65-.27l.91.92a.44.44,0,0,0,.32.13.42.42,0,0,0,.32-.13l2.49-2.49A.42.42,0,0,0,15,12.09Zm-2.94,1.85-.83-.83a.44.44,0,0,0-.53-.07,6.2,6.2,0,0,1-1.1.45.45.45,0,0,0-.32.43V15.1H6.69V13.92a.45.45,0,0,0-.32-.43A6.2,6.2,0,0,1,5.27,13a.44.44,0,0,0-.53.07l-.83.83L2.06,12.09l.83-.83A.44.44,0,0,0,3,10.73a6.2,6.2,0,0,1-.45-1.1.45.45,0,0,0-.43-.32H.9V6.69H2.08a.45.45,0,0,0,.43-.32A6.2,6.2,0,0,1,3,5.27a.44.44,0,0,0-.07-.53l-.83-.83L3.91,2.06l.83.83A.44.44,0,0,0,5.27,3a6.2,6.2,0,0,1,1.1-.45.45.45,0,0,0,.32-.43V.9H9.31V2.08a.45.45,0,0,0,.32.43,6.2,6.2,0,0,1,1.1.45.44.44,0,0,0,.53-.07l.83-.83,1.85,1.85-.83.83a.44.44,0,0,0-.07.53,6.2,6.2,0,0,1,.45,1.1.45.45,0,0,0,.43.32H15.1V9.31H13.92a.45.45,0,0,0-.43.32,6.2,6.2,0,0,1-.45,1.1.44.44,0,0,0,.07.53l.83.83Z" fill="#c5c5c5"/><path d="M11.28,8A3.28,3.28,0,1,0,8,11.28,3.28,3.28,0,0,0,11.28,8ZM5.63,8A2.37,2.37,0,1,1,8,10.37,2.37,2.37,0,0,1,5.63,8Z" fill="#c5c5c5"/></svg>
