<?xml version="1.0" encoding="utf-8"?>
<!-- Generator: Adobe Illustrator 26.0.2, SVG Export Plug-In . SVG Version: 6.00 Build 0)  -->
<svg version="1.1" id="Layer_1" xmlns="http://www.w3.org/2000/svg" xmlns:xlink="http://www.w3.org/1999/xlink" x="0px" y="0px"
	 viewBox="0 0 22.5 24" style="enable-background:new 0 0 22.5 24;" xml:space="preserve">
<g>
	<path d="M22,0H0.5C0.2,0,0,0.2,0,0.5v19.4c0,0.3,0.2,0.5,0.5,0.5H2v3.1C2,23.8,2.2,24,2.5,24H20c0.3,0,0.5-0.2,0.5-0.5v-3.1H22
		c0.3,0,0.5-0.2,0.5-0.5V0.5C22.5,0.2,22.2,0,22,0z M12.3,1H18v13.9h-5.7V1z M8.8,23H5.5v-2.5h3.3V23z M21.5,19.4H20
		c-0.3,0-0.5,0.2-0.5,0.5V23H9.8v-3c0-0.3-0.2-0.5-0.5-0.5H5c-0.3,0-0.5,0.2-0.5,0.5v3H3v-3.1c0-0.3-0.2-0.5-0.5-0.5H1V1h10.4v14.4
		c0,0.3,0.2,0.5,0.5,0.5h6.6c0.3,0,0.5-0.2,0.5-0.5V1h2.6V19.4z"/>
	<path d="M16.4,19.6L16.4,19.6l-1.2,1.1l-1.2-1.1c-0.2-0.2-0.5-0.2-0.7,0c-0.2,0.2-0.2,0.5,0,0.7l1.5,1.5c0.2,0.2,0.5,0.2,0.7,0
		c0,0,0,0,0,0l1.5-1.5c0.2-0.2,0.2-0.5,0-0.7C16.9,19.4,16.6,19.4,16.4,19.6z"/>
</g>
<g>
	<path d="M8.5,14.9c-0.1,0.2-0.3,0.4-0.5,0.5c-0.2,0.1-0.4,0.2-0.7,0.2H7.1c0,0,0,0-0.1,0c0,0,0,0,0-0.1v-0.8c0,0,0,0,0-0.1
		c0,0,0,0,0.1,0h0.2c0.2,0,0.3,0,0.4-0.1c0.1-0.1,0.1-0.2,0.1-0.3c0-0.1,0-0.2-0.1-0.3c-0.1-0.1-0.2-0.1-0.3-0.1
		c-0.1,0-0.3,0-0.4,0.1c-0.1,0.1-0.3,0.3-0.5,0.6c-0.2,0.2-0.3,0.4-0.5,0.6c-0.1,0.2-0.3,0.3-0.5,0.4c-0.2,0.1-0.4,0.2-0.7,0.2
		c-0.4,0-0.8-0.1-1-0.4c-0.3-0.3-0.4-0.6-0.4-1c0-0.4,0.1-0.8,0.4-1c0.3-0.3,0.6-0.4,1-0.4H5c0,0,0,0,0.1,0c0,0,0,0,0,0.1v0.8
		c0,0,0,0,0,0.1c0,0,0,0-0.1,0H4.8c-0.2,0-0.3,0-0.4,0.1c-0.1,0.1-0.1,0.2-0.1,0.3c0,0.1,0,0.2,0.1,0.3c0.1,0.1,0.2,0.1,0.4,0.1
		c0.1,0,0.3,0,0.4-0.1c0.1-0.1,0.3-0.3,0.5-0.6c0.2-0.3,0.4-0.5,0.6-0.7c0.1-0.2,0.3-0.3,0.5-0.4c0.2-0.1,0.4-0.1,0.6-0.1
		c0.4,0,0.8,0.1,1,0.4c0.3,0.3,0.4,0.6,0.4,1C8.7,14.5,8.6,14.7,8.5,14.9z"/>
	<path d="M4.3,9.6C4.3,9.6,4.4,9.6,4.3,9.6l0,1.6c0,0,0,0,0,0h1.2c0,0,0,0,0,0v-0.9c0,0,0,0,0-0.1c0,0,0,0,0.1,0h0.7c0,0,0,0,0.1,0
		c0,0,0,0,0,0.1v0.9c0,0,0,0,0,0h2c0,0,0,0,0.1,0c0,0,0,0,0,0.1v0.9c0,0,0,0,0,0.1c0,0,0,0-0.1,0h-5c0,0,0,0-0.1,0c0,0,0,0,0-0.1
		V9.6c0,0,0,0,0-0.1c0,0,0,0,0.1,0L4.3,9.6C4.3,9.5,4.3,9.6,4.3,9.6z"/>
	<path d="M8.3,8.8C8,9.1,7.7,9.2,7.2,9.2H4.8c-0.4,0-0.8-0.1-1-0.4C3.5,8.5,3.4,8.2,3.4,7.7c0-0.4,0.1-0.8,0.4-1.1
		c0.3-0.3,0.6-0.4,1-0.4h0.1c0,0,0,0,0.1,0c0,0,0,0,0,0.1l0,0.9c0,0.1,0,0.1-0.1,0.1H4.8c-0.1,0-0.3,0-0.3,0.1
		C4.3,7.5,4.3,7.6,4.3,7.7c0,0.1,0,0.2,0.1,0.3c0.1,0.1,0.2,0.1,0.3,0.1h2.5c0.1,0,0.3,0,0.3-0.1C7.8,8,7.8,7.9,7.8,7.7
		c0-0.1,0-0.2-0.1-0.3C7.6,7.3,7.5,7.3,7.3,7.3H7.1c0,0,0,0-0.1,0c0,0,0,0,0-0.1l0-0.9c0,0,0,0,0-0.1c0,0,0,0,0.1,0h0.1
		c0.4,0,0.8,0.1,1.1,0.4c0.3,0.3,0.4,0.6,0.4,1.1S8.6,8.5,8.3,8.8z"/>
	<path d="M8.3,5.4C8,5.6,7.7,5.8,7.2,5.8H4.8c-0.4,0-0.8-0.1-1-0.4C3.5,5.1,3.4,4.8,3.4,4.3c0-0.4,0.1-0.8,0.4-1.1
		c0.3-0.3,0.6-0.4,1-0.4h0.1c0,0,0,0,0.1,0c0,0,0,0,0,0.1l0,0.9c0,0.1,0,0.1-0.1,0.1H4.8c-0.1,0-0.3,0-0.3,0.1
		C4.3,4.1,4.3,4.2,4.3,4.3c0,0.1,0,0.2,0.1,0.3c0.1,0.1,0.2,0.1,0.3,0.1h2.5c0.1,0,0.3,0,0.3-0.1c0.1-0.1,0.1-0.2,0.1-0.3
		c0-0.1,0-0.2-0.1-0.3S7.5,3.9,7.3,3.9H7.1c0,0,0,0-0.1,0c0,0,0,0,0-0.1l0-0.9c0,0,0,0,0-0.1c0,0,0,0,0.1,0h0.1C7.7,2.8,8,3,8.3,3.2
		c0.3,0.3,0.4,0.6,0.4,1.1S8.6,5.1,8.3,5.4z"/>
</g>
</svg>
