<svg xmlns="http://www.w3.org/2000/svg" viewBox="0 0 22.46 24"><path d="M21.98 0H.48A.49.49 0 0 0 0 .48v19.44a.48.48 0 0 0 .48.48h1.55v3.12a.48.48 0 0 0 .48.48h17.54a.48.48 0 0 0 .48-.48v-3.09h1.45a.48.48 0 0 0 .48-.48V.48a.49.49 0 0 0-.48-.48Zm-9.67 1h5.65v13.88h-5.65ZM8.8 23H5.53v-2.53H8.8Zm12.7-3.57h-1.45a.48.48 0 0 0-.48.48V23h-9.8v-3a.49.49 0 0 0-.48-.48H5.05a.49.49 0 0 0-.49.48v3H2.99v-3.08a.48.48 0 0 0-.48-.48H.96V1h10.38v14.4a.49.49 0 0 0 .48.48h6.62a.48.48 0 0 0 .48-.48V1h2.58Z"/><path d="M9.29 3H5.05a.5.5 0 1 0 0 1h4.24a.5.5 0 1 0 0-1ZM9.29 6H5.05a.5.5 0 1 0 0 1h4.24a.5.5 0 0 0 0-1ZM9.29 9H5.05a.48.48 0 0 0-.49.48.49.49 0 0 0 .49.48h4.24a.49.49 0 0 0 .48-.48.48.48 0 0 0-.48-.48ZM9.29 11.92H5.05a.48.48 0 0 0-.49.48.49.49 0 0 0 .49.48h4.24a.49.49 0 0 0 .48-.48.48.48 0 0 0-.48-.48ZM9.29 14.88H5.05a.48.48 0 0 0-.49.48.49.49 0 0 0 .49.48h4.24a.49.49 0 0 0 .48-.48.48.48 0 0 0-.48-.48ZM16.31 18.93l-1.18 1.18L13.96 19a.484.484 0 1 0-.68.69l1.51 1.5a.47.47 0 0 0 .68 0l1.52-1.52a.48.48 0 1 0-.68-.68ZM15.7 11.39a.8.8 0 0 1 .46.13.91.91 0 0 1 .33.39 1.49 1.49 0 0 1 .12.62 1.45 1.45 0 0 1-.16.7 1 1 0 0 1-.31.32.73.73 0 0 1-.38.12.24.24 0 0 1-.18-.07.25.25 0 0 1-.07-.19.3.3 0 0 1 0-.16.5.5 0 0 1 .18-.1l.23-.12a.65.65 0 0 0 .15-.18.68.68 0 0 0 .06-.31.7.7 0 0 0-.12-.42.35.35 0 0 0-.3-.16.3.3 0 0 0-.23.09.55.55 0 0 0-.14.22c0 .1-.06.22-.1.37a3.17 3.17 0 0 1-.17.52.78.78 0 0 1-.26.33.68.68 0 0 1-.42.13.75.75 0 0 1-.42-.13.81.81 0 0 1-.29-.38 1.61 1.61 0 0 1-.1-.57 1.53 1.53 0 0 1 .07-.46.88.88 0 0 1 .17-.32.77.77 0 0 1 .23-.19.53.53 0 0 1 .24-.06.25.25 0 0 1 .18.08.21.21 0 0 1 .09.18.21.21 0 0 1-.05.15.62.62 0 0 1-.17.11.86.86 0 0 0-.25.19.54.54 0 0 0-.09.35.58.58 0 0 0 .1.37.28.28 0 0 0 .24.14.24.24 0 0 0 .19-.08.28.28 0 0 0 .11-.13.51.51 0 0 0 .07-.17c0-.05 0-.15.08-.27s.08-.31.12-.45a1.28 1.28 0 0 1 .17-.33.88.88 0 0 1 .25-.22.82.82 0 0 1 .37-.04ZM14.13 8.93v1.15h.74v-1a.3.3 0 0 1 .06-.2.21.21 0 0 1 .16-.06.2.2 0 0 1 .16.07.27.27 0 0 1 .06.19v1h.92a.41.41 0 0 1 .27.08.29.29 0 0 1 .09.21.26.26 0 0 1-.09.21.36.36 0 0 1-.27.08h-2.19a.56.56 0 0 1-.2 0 .23.23 0 0 1-.12-.12.54.54 0 0 1 0-.2V8.93a.24.24 0 0 1 .07-.2.19.19 0 0 1 .16-.07.2.2 0 0 1 .16.07.28.28 0 0 1 .02.2ZM15.65 5.78a.89.89 0 0 1 .3.06 1.19 1.19 0 0 1 .31.22 1 1 0 0 1 .25.37 1.21 1.21 0 0 1 .1.52 1.79 1.79 0 0 1-.05.42 1.09 1.09 0 0 1-.13.34 1.23 1.23 0 0 1-.2.29 1.53 1.53 0 0 1-.3.19 1.9 1.9 0 0 1-.36.12 1.78 1.78 0 0 1-.41 0 1.75 1.75 0 0 1-.62-.1 1.33 1.33 0 0 1-.51-.21 1.17 1.17 0 0 1-.29-.44 1.41 1.41 0 0 1-.11-.56 1.38 1.38 0 0 1 .14-.62 1.23 1.23 0 0 1 .35-.42.64.64 0 0 1 .39-.15.25.25 0 0 1 .17.08.21.21 0 0 1 .08.17.23.23 0 0 1 0 .16.87.87 0 0 1-.19.13.78.78 0 0 0-.32.27.65.65 0 0 0-.1.38.68.68 0 0 0 .27.57 1.24 1.24 0 0 0 .77.21 1.49 1.49 0 0 0 .56-.09.85.85 0 0 0 .34-.27.77.77 0 0 0 .1-.4.75.75 0 0 0-.12-.43.69.69 0 0 0-.37-.26l-.18-.09A.21.21 0 0 1 15.4 6a.24.24 0 0 1 .25-.25ZM15.65 2.68a.72.72 0 0 1 .3.07 1 1 0 0 1 .28.25 1.1 1.1 0 0 1 .25.37 1.25 1.25 0 0 1 .1.53 1.7 1.7 0 0 1-.05.41 1 1 0 0 1-.13.34 1.23 1.23 0 0 1-.24.28 1.53 1.53 0 0 1-.3.19 1.39 1.39 0 0 1-.36.12 1.78 1.78 0 0 1-.41 0 1.75 1.75 0 0 1-.62-.1 1.33 1.33 0 0 1-.47-.29 1.09 1.09 0 0 1-.29-.44 1.41 1.41 0 0 1-.11-.54 1.38 1.38 0 0 1 .14-.62 1.23 1.23 0 0 1 .35-.42.62.62 0 0 1 .39-.14.23.23 0 0 1 .17.07.21.21 0 0 1 .08.17.29.29 0 0 1 0 .17l-.19.12a1 1 0 0 0-.32.27.65.65 0 0 0-.1.38.68.68 0 0 0 .27.57 1.24 1.24 0 0 0 .77.21 1.49 1.49 0 0 0 .56-.09.77.77 0 0 0 .34-.27.74.74 0 0 0 .1-.4.75.75 0 0 0-.12-.43.75.75 0 0 0-.37-.26.76.76 0 0 1-.18-.09.21.21 0 0 1-.07-.18.24.24 0 0 1 .25-.25Z"/></svg>
