<svg xmlns="http://www.w3.org/2000/svg" viewBox="0 0 22.46 24"><path d="M21.98 0H.48A.49.49 0 0 0 0 .48v19.44a.48.48 0 0 0 .48.48h1.55v3.12a.48.48 0 0 0 .48.48h17.54a.48.48 0 0 0 .48-.48v-3.09h1.45a.48.48 0 0 0 .48-.48V.48a.49.49 0 0 0-.48-.48Zm-9.67 1h5.65v13.88h-5.65ZM8.8 23H5.53v-2.53H8.8Zm12.7-3.57h-1.45a.48.48 0 0 0-.48.48V23h-9.8v-3a.49.49 0 0 0-.48-.48H5.05a.49.49 0 0 0-.49.48v3H2.99v-3.08a.48.48 0 0 0-.48-.48H.96V1h10.38v14.4a.49.49 0 0 0 .48.48h6.62a.48.48 0 0 0 .48-.48V1h2.58Z"/><path d="M9.29 4.12H5.05a.5.5 0 1 0 0 1h4.24a.5.5 0 0 0 0-1ZM9.29 7.7H5.05a.5.5 0 1 0 0 1h4.24a.5.5 0 0 0 0-1ZM9.29 11.29H5.05a.49.49 0 0 0-.49.48.48.48 0 0 0 .49.48h4.24a.48.48 0 0 0 .48-.48.49.49 0 0 0-.48-.48ZM9.29 14.88H5.05a.48.48 0 0 0-.49.48.49.49 0 0 0 .49.48h4.24a.49.49 0 0 0 .48-.48.48.48 0 0 0-.48-.48ZM16.31 18.93l-1.18 1.18L13.96 19a.484.484 0 1 0-.68.69l1.51 1.5a.47.47 0 0 0 .68 0l1.52-1.52a.48.48 0 1 0-.68-.68Z"/></svg>
